<svg width="16" height="16" viewBox="0 0 16 16" fill="none" xmlns="http://www.w3.org/2000/svg">
<path d="M10.838 2H9.9998L8.36963 4.75489H9.9998C10.7954 4.75489 11.5585 5.10645 12.1211 5.73225C12.6837 6.35805 12.9998 7.20681 12.9998 8.09182C12.9998 8.97683 12.6837 9.82559 12.1211 10.4514C11.5585 11.0772 10.7954 11.5596 9.9998 11.5596H9.49993V12.7635L9.50002 13.8966L10.6169 13.8966C11.9119 13.8966 13.1538 13.4654 14.0696 12.339C14.9853 11.2126 15.4998 9.68482 15.4998 8.0918C15.4998 6.49878 14.9853 4.97101 14.0696 3.84458C13.1538 2.71815 12.1331 2 10.838 2Z" fill="#C5C5C5"/>
<path d="M0.399948 4.441V2.07349L9 2L2.98582 11.5435H8.58855V13.9111H0.399948L0.399902 11.5435L5.14067 4.441H0.399948Z" fill="#C5C5C5"/>
</svg>
